<svg width="55" height="58" viewBox="0 0 55 58" fill="none" xmlns="http://www.w3.org/2000/svg">
<path fill-rule="evenodd" clip-rule="evenodd" d="M24.6711 15.1974V0H25.2961C24.4627 2.26974 24.0987 8.78289 29.3092 16.6776L31.5696 20.0431C35.0758 25.2172 38.3778 30.09 39.8026 35.226C40.7119 38.5034 40.8567 41.8879 39.8026 45.5263C38.7763 49.6842 35.3618 52.8509 33.7829 53.9145C23.6776 60.6513 13.3662 55.932 9.47368 52.7303C6.31579 50.8224 0 44.4737 0 34.3421C0 24.2105 5.87719 21.3925 8.81579 21.25V20.8553H11.5906C12.3308 18.9312 14.1967 17.5658 16.3816 17.5658C19.2157 17.5658 21.5132 19.8633 21.5132 22.6974C21.5132 25.5315 19.2157 27.8289 16.3816 27.8289C13.816 27.8289 11.6901 25.9461 11.3104 23.4868H8.81579V23.0921C7.65351 23.0044 4.88158 23.5987 3.09211 26.6776C0.855263 30.5263 1.15132 34.7368 2.33553 39.7697C3.51974 44.8026 10.2303 55.296 23.1908 55.7237C33.5592 56.0658 38.1908 49.068 39.2105 45.5263H24.6711V30.3289H17.4496C21.1543 29.8386 24.0132 26.6677 24.0132 22.8289C24.0132 18.6505 20.6258 15.2632 16.4474 15.2632C13.3113 15.2632 10.6209 17.1712 9.47368 19.8898V15.1974L24.6711 15.1974ZM16.3816 25.5263C17.944 25.5263 19.2105 24.2597 19.2105 22.6974C19.2105 21.135 17.944 19.8684 16.3816 19.8684C14.8192 19.8684 13.5526 21.135 13.5526 22.6974C13.5526 24.2597 14.8192 25.5263 16.3816 25.5263Z" fill="#88C250"/>
<path d="M55 15.1974V30.3289H42.6974C43.9474 33.9145 43.6842 42.8289 41.5132 45.5263C43.4869 42.3684 42.5439 33.1689 41.5132 30.3289C40.4869 27.5395 34.9013 19.0789 32.2369 15.1974C27.6842 8.38158 28.2347 2.22588 29.079 0H39.8027V15.1974L55 15.1974Z" fill="#49AFC0"/>
</svg>
