<svg width="460" height="80" viewBox="0 0 460 80" fill="none" xmlns="http://www.w3.org/2000/svg">
<path fill-rule="evenodd" clip-rule="evenodd" d="M34.418 21.2015V0H35.2899C34.1274 3.16645 33.6195 12.2528 40.8886 23.2665L44.0421 27.9616C48.9334 35.1799 53.5399 41.9778 55.5277 49.1429C56.7961 53.7151 56.9982 58.4368 55.5277 63.5126C54.0959 69.3132 49.3325 73.7309 47.1297 75.2147C33.0321 84.6131 18.6469 78.0293 13.2166 73.5626C8.81106 70.901 6.10352e-05 62.0441 6.10352e-05 47.9098C6.10352e-05 33.7755 8.19918 29.8442 12.2987 29.6453V29.0946H16.1697C17.2025 26.4104 19.8056 24.5056 22.8536 24.5056C26.8073 24.5056 30.0125 27.7107 30.0125 31.6645C30.0125 35.6183 26.8073 38.8234 22.8536 38.8234C19.2743 38.8234 16.3086 36.1968 15.7788 32.7659H12.2987V32.2152C10.6773 32.0928 6.81023 32.9219 4.31378 37.2173C1.19322 42.5865 1.60623 48.4605 3.25829 55.4817C4.91035 62.503 14.272 77.1421 32.3529 77.7387C46.8176 78.2159 53.279 68.4535 54.7017 63.5126H34.418V42.3111H24.3435C29.5119 41.6271 33.5002 37.2034 33.5002 31.8481C33.5002 26.0188 28.7746 21.2932 22.9454 21.2932C18.5703 21.2932 14.8169 23.9551 13.2166 27.7477V21.2015L34.418 21.2015ZM22.8536 35.6111C25.0332 35.6111 26.8002 33.8441 26.8002 31.6645C26.8002 29.4849 25.0332 27.7179 22.8536 27.7179C20.6739 27.7179 18.907 29.4849 18.907 31.6645C18.907 33.8441 20.6739 35.6111 22.8536 35.6111Z" fill="#88C250"/>
<path d="M76.7291 21.2015V42.3111H59.5661C61.3099 47.3132 60.9428 59.7496 57.914 63.5126C60.6674 59.1071 59.3519 46.273 57.914 42.3111C56.4822 38.4196 48.69 26.6165 44.9729 21.2015C38.6216 11.6929 39.3895 3.10526 40.5674 0H55.5277V21.2015L76.7291 21.2015Z" fill="#49AFC0"/>
<path d="M293.039 58.2321C289.846 58.9687 286.532 59.337 283.094 59.337C269.343 59.337 262.468 52.6458 262.468 39.2634C262.468 26.8631 269.343 20.663 283.094 20.663C286.532 20.663 289.846 21.0313 293.039 21.768V29.5028C289.846 28.7661 286.777 28.3978 283.83 28.3978C276.096 28.3978 272.228 32.0197 272.228 39.2634C272.228 47.4893 276.096 51.6022 283.83 51.6022C286.777 51.6022 289.846 51.2339 293.039 50.4973V58.2321Z" fill="#49AFC0"/>
<path d="M297.643 47.2928C297.643 39.6071 303.241 35.7643 314.438 35.7643C317.066 35.7643 319.693 36.0098 322.32 36.5009V33.5912C322.32 30.1289 319.828 28.3978 314.843 28.3978C310.62 28.3978 305.93 29.0117 300.773 30.2394V22.5046C305.93 21.2769 310.62 20.663 314.843 20.663C326.335 20.663 332.081 24.911 332.081 33.407V59.337H326.409L322.946 55.8748C319.582 58.183 315.875 59.337 311.823 59.337C302.369 59.337 297.643 55.3223 297.643 47.2928ZM322.32 43.1308C319.865 42.6397 317.237 42.3941 314.438 42.3941C309.748 42.3941 307.403 43.9902 307.403 47.1823C307.403 50.62 309.368 52.3389 313.296 52.3389C316.538 52.3389 319.546 51.3321 322.32 49.3186V43.1308Z" fill="#49AFC0"/>
<path d="M351.086 49.245C353.517 50.5709 356.132 51.2339 358.932 51.2339C364.751 51.2339 367.661 47.1455 367.661 38.9687C367.661 32.0197 364.444 28.5451 358.011 28.5451C355.236 28.5451 352.928 28.717 351.086 29.0608V49.245ZM341.326 22.2468C346.458 21.1909 351.884 20.663 357.606 20.663C370.743 20.663 377.311 26.7895 377.311 39.0424C377.311 52.5721 371.197 59.337 358.969 59.337C356.366 59.337 353.738 58.7232 351.086 57.4954V73.3334H341.326V22.2468Z" fill="#49AFC0"/>
<path d="M394.475 49.245C396.906 50.5709 399.521 51.2339 402.32 51.2339C408.14 51.2339 411.05 47.1455 411.05 38.9687C411.05 32.0197 407.833 28.5451 401.4 28.5451C398.625 28.5451 396.317 28.717 394.475 29.0608V49.245ZM384.714 22.2468C389.846 21.1909 395.273 20.663 400.994 20.663C414.131 20.663 420.7 26.7895 420.7 39.0424C420.7 52.5721 414.586 59.337 402.357 59.337C399.754 59.337 397.127 58.7232 394.475 57.4954V73.3334H384.714V22.2468Z" fill="#49AFC0"/>
<path d="M428.103 57.4954V49.3923C432.4 51.1111 437.36 51.9706 442.983 51.9706C447.182 51.9706 449.282 50.62 449.282 47.919C449.282 45.3407 447.87 44.0516 445.046 44.0516H438.048C430.19 44.0516 426.261 40.1842 426.261 32.4494C426.261 24.3462 431.995 20.2947 443.462 20.2947C448.324 20.2947 452.904 21.0313 457.201 22.5046V30.6078C452.904 28.8889 448.238 28.0295 443.204 28.0295C437.925 28.0295 435.285 29.38 435.285 32.0811C435.285 34.6593 436.82 35.9485 439.889 35.9485H446.151C454.745 35.9485 459.042 39.8159 459.042 47.5507C459.042 55.6538 453.567 59.7054 442.615 59.7054C437.237 59.7054 432.4 58.9687 428.103 57.4954Z" fill="#49AFC0"/>
<path d="M95.3958 59.337V6.66663H105.525L123.388 46.6298L140.884 6.66663H150.644V59.337H141.62V22.6519L127.33 59.337H119.005L104.42 22.6519V59.337H95.3958Z" fill="#88C250"/>
<path d="M177.09 20.6629C188.827 20.6629 194.696 26.6543 194.696 38.6372C194.696 40.2332 194.586 41.8293 194.365 43.4254H168.692C168.692 48.8766 172.695 51.6022 180.7 51.6022C184.604 51.6022 188.508 51.2338 192.412 50.4972V58.232C188.999 58.9687 184.849 59.337 179.963 59.337C165.942 59.337 158.932 52.744 158.932 39.558C158.932 26.9613 164.985 20.6629 177.09 20.6629ZM168.692 36.6482H185.193V36.3535C185.193 31.0006 182.492 28.3241 177.09 28.3241C171.934 28.3241 169.134 31.0988 168.692 36.6482Z" fill="#88C250"/>
<path d="M226.519 30.755C224.506 29.4291 221.977 28.7661 218.932 28.7661C212.867 28.7661 209.834 32.1669 209.834 38.9687C209.834 47.0472 212.989 51.0865 219.3 51.0865C221.854 51.0865 224.26 50.7305 226.519 50.0184V30.755ZM236.28 57.0165C230.362 58.5635 224.579 59.337 218.932 59.337C206.433 59.337 200.184 52.6335 200.184 39.2265C200.184 26.8508 206.298 20.6629 218.527 20.6629C221.129 20.6629 223.794 21.2768 226.519 22.5046V6.66663H236.28V57.0165Z" fill="#88C250"/>
<path d="M255.249 6.66663V14.4014H245.488V6.66663H255.249ZM255.249 20.6629V59.337H245.488V20.6629H255.249Z" fill="#88C250"/>
</svg>
